<svg xmlns="http://www.w3.org/2000/svg" viewBox="0 0 51 48" width="51" height="48">
  <g fill="currentColor">
    <rect x="13" y="0" width="1" height="1"></rect>
    <rect x="36" y="0" width="2" height="1"></rect>
    <rect x="11" y="1" width="4" height="1"></rect>
    <rect x="35" y="1" width="4" height="1"></rect>
    <rect x="10" y="2" width="6" height="1"></rect>
    <rect x="34" y="2" width="7" height="1"></rect>
    <rect x="9" y="3" width="8" height="1"></rect>
    <rect x="33" y="3" width="9" height="1"></rect>
    <rect x="8" y="4" width="10" height="1"></rect>
    <rect x="32" y="4" width="11" height="1"></rect>
    <rect x="7" y="5" width="12" height="1"></rect>
    <rect x="31" y="5" width="13" height="1"></rect>
    <rect x="6" y="6" width="14" height="1"></rect>
    <rect x="30" y="6" width="15" height="1"></rect>
    <rect x="5" y="7" width="16" height="1"></rect>
    <rect x="29" y="7" width="17" height="1"></rect>
    <rect x="5" y="8" width="17" height="1"></rect>
    <rect x="28" y="8" width="18" height="1"></rect>
    <rect x="6" y="9" width="17" height="1"></rect>
    <rect x="27" y="9" width="18" height="1"></rect>
    <rect x="7" y="10" width="17" height="1"></rect>
    <rect x="26" y="10" width="18" height="1"></rect>
    <rect x="9" y="11" width="33" height="1"></rect>
    <rect x="10" y="12" width="30" height="1"></rect>
    <rect x="12" y="13" width="26" height="1"></rect>
    <rect x="15" y="14" width="21" height="1"></rect>
    <rect x="18" y="15" width="14" height="1"></rect>
    <rect x="1" y="16" width="2" height="1"></rect>
    <rect x="47" y="16" width="3" height="1"></rect>
    <rect x="1" y="17" width="8" height="1"></rect>
    <rect x="42" y="17" width="8" height="1"></rect>
    <rect x="0" y="18" width="12" height="1"></rect>
    <rect x="39" y="18" width="11" height="1"></rect>
    <rect x="0" y="19" width="14" height="1"></rect>
    <rect x="37" y="19" width="14" height="1"></rect>
    <rect x="0" y="20" width="15" height="1"></rect>
    <rect x="35" y="20" width="16" height="1"></rect>
    <rect x="0" y="21" width="16" height="1"></rect>
    <rect x="33" y="21" width="18" height="1"></rect>
    <rect x="0" y="22" width="17" height="1"></rect>
    <rect x="32" y="22" width="19" height="1"></rect>
    <rect x="0" y="23" width="18" height="1"></rect>
    <rect x="31" y="23" width="20" height="1"></rect>
    <rect x="0" y="24" width="18" height="1"></rect>
    <rect x="30" y="24" width="21" height="1"></rect>
    <rect x="0" y="25" width="18" height="1"></rect>
    <rect x="29" y="25" width="22" height="1"></rect>
    <rect x="0" y="26" width="19" height="1"></rect>
    <rect x="28" y="26" width="22" height="1"></rect>
    <rect x="0" y="27" width="19" height="1"></rect>
    <rect x="27" y="27" width="23" height="1"></rect>
    <rect x="1" y="28" width="18" height="1"></rect>
    <rect x="26" y="28" width="24" height="1"></rect>
    <rect x="25" y="29" width="7" height="1"></rect>
    <rect x="24" y="30" width="8" height="1"></rect>
    <rect x="24" y="31" width="8" height="1"></rect>
    <rect x="23" y="32" width="9" height="1"></rect>
    <rect x="23" y="33" width="9" height="1"></rect>
    <rect x="22" y="34" width="10" height="1"></rect>
    <rect x="22" y="35" width="10" height="1"></rect>
    <rect x="21" y="36" width="11" height="1"></rect>
    <rect x="21" y="37" width="11" height="1"></rect>
    <rect x="20" y="38" width="12" height="1"></rect>
    <rect x="20" y="39" width="12" height="1"></rect>
    <rect x="20" y="40" width="12" height="1"></rect>
    <rect x="20" y="41" width="12" height="1"></rect>
    <rect x="20" y="42" width="12" height="1"></rect>
    <rect x="19" y="43" width="13" height="1"></rect>
    <rect x="19" y="44" width="13" height="1"></rect>
    <rect x="19" y="45" width="13" height="1"></rect>
    <rect x="19" y="46" width="13" height="1"></rect>
    <rect x="20" y="47" width="10" height="1"></rect>
  </g>
</svg>